<svg width="64" height="64" viewBox="0 0 64 64" fill="none" xmlns="http://www.w3.org/2000/svg">
  <rect width="64" height="64" rx="18" fill="url(#logo-bg)"/>
  <path
    d="M23 10H41C49.8366 10 57 17.1634 57 26V33C57 41.8366 49.8366 49 41 49H29.75L19 58V48.08C12.74 46.244 8 40.668 8 34V26C8 17.1634 15.1634 10 24 10H23Z"
    fill="white"
    fill-opacity="0.1"
    stroke="#F8FAFC"
    stroke-width="2.5"
    stroke-linejoin="round"
  />
  <rect x="22" y="29" width="6.5" height="11" rx="3.25" fill="#F8FAFC" fill-opacity="0.46"/>
  <rect x="31.25" y="24.5" width="6.5" height="15.5" rx="3.25" fill="#F8FAFC" fill-opacity="0.72"/>
  <rect x="40.5" y="20" width="6.5" height="20" rx="3.25" fill="#F8FAFC"/>
  <path d="M22 18.5H45" stroke="#F8FAFC" stroke-width="2" stroke-linecap="round" stroke-opacity="0.16"/>
  <defs>
    <linearGradient id="logo-bg" x1="8" y1="6" x2="56" y2="60" gradientUnits="userSpaceOnUse">
      <stop stop-color="#10203A"/>
      <stop offset="0.55" stop-color="#1D4ED8"/>
      <stop offset="1" stop-color="#2563EB"/>
    </linearGradient>
  </defs>
</svg>
